<svg width="375" height="56" viewBox="0 0 375 56" fill="none" xmlns="http://www.w3.org/2000/svg">
<g clip-path="url(#clip0_2001_378)">
<path d="M361.997 16.2428L365.829 3.82611H368.453L372.285 16.2428H370.742L369.785 13.1022H364.497L363.54 16.2428H361.997ZM364.872 11.7557H369.396L367.267 4.73225H367.019L364.872 11.7557Z" fill="white"/>
<path d="M373.261 16.2428V3.82611H374.749V16.2428H373.261Z" fill="white"/>
<path d="M96.7107 50.0573V3H114.729C117.553 3 120.075 3.54951 122.291 4.64852C124.511 5.74753 126.269 7.30507 127.568 9.32113C128.868 11.3372 129.519 13.7827 129.519 16.6503V17.5237C129.519 20.3476 128.857 22.7786 127.536 24.8165C126.214 26.858 124.431 28.4119 122.189 29.4891C119.948 30.5663 117.458 31.1012 114.725 31.1012H102.355V50.0573H96.707H96.7107ZM102.359 25.9919H114.125C117.127 25.9919 119.504 25.2422 121.25 23.7393C122.997 22.24 123.871 20.122 123.871 17.3854V16.7122C123.871 13.9792 123.008 11.8612 121.283 10.3583C119.558 8.85897 117.171 8.10567 114.125 8.10567H102.359V25.9883V25.9919Z" fill="white"/>
<path d="M143.3 50.9999C141.014 50.9999 138.929 50.596 137.048 49.7917C135.166 48.9838 133.685 47.8193 132.611 46.2945C131.534 44.7734 130.999 42.9102 130.999 40.7158C130.999 38.5214 131.538 36.6254 132.611 35.1698C133.685 33.7141 135.166 32.6151 137.048 31.8764C138.929 31.1376 141.036 30.7665 143.365 30.7665H154.458V28.3464C154.458 26.0174 153.774 24.1797 152.409 22.8332C151.041 21.4904 149.014 20.8171 146.324 20.8171C143.635 20.8171 141.618 21.4576 140.137 22.7313C138.66 24.0086 137.652 25.7226 137.113 27.8734L132.138 26.2612C132.677 24.4235 133.528 22.7531 134.693 21.2538C135.857 19.7545 137.415 18.5427 139.366 17.622C141.316 16.7049 143.656 16.2428 146.39 16.2428C150.6 16.2428 153.876 17.3309 156.205 19.5034C158.534 21.676 159.702 24.7365 159.702 28.6812V43.5397C159.702 44.8826 160.328 45.5558 161.584 45.5558H164.608V50.061H159.968C158.49 50.061 157.3 49.6462 156.405 48.8164C155.506 47.9867 155.058 46.8768 155.058 45.4903V45.1555H154.25C153.756 46.007 153.097 46.8914 152.267 47.812C151.437 48.7327 150.305 49.4933 148.872 50.0974C147.438 50.7015 145.578 51.0035 143.293 51.0035L143.3 50.9999ZM143.904 46.4292C147.041 46.4292 149.585 45.5012 151.536 43.638C153.486 41.7784 154.462 39.1692 154.462 35.8066V35.0679H143.569C141.462 35.0679 139.726 35.5264 138.358 36.4471C136.989 37.3678 136.309 38.7434 136.309 40.5811C136.309 42.4189 137.015 43.8527 138.427 44.8826C139.839 45.9124 141.666 46.4292 143.904 46.4292Z" fill="white"/>
<path d="M178.463 50.0573C176.581 50.0573 175.137 49.5442 174.125 48.5107C173.117 47.4808 172.611 46.0688 172.611 44.2747V21.8214H162.727V17.1816H172.611V5.48547H177.921V17.1816H188.678V21.8214H177.921V43.4669C177.921 44.8097 178.568 45.4829 179.871 45.4829H187.201V50.0537H178.463V50.0573Z" fill="white"/>
<path d="M207.844 50.9997C204.659 50.9997 201.802 50.3156 199.273 48.9509C196.74 47.5862 194.746 45.6247 193.29 43.0701C191.834 40.5154 191.106 37.4913 191.106 33.9941V33.2554C191.106 29.7146 191.834 26.6795 193.29 24.1467C194.746 21.6139 196.74 19.667 199.273 18.2987C201.806 16.9304 204.663 16.2498 207.844 16.2498C211.024 16.2498 213.659 16.8321 215.876 17.9966C218.095 19.1611 219.842 20.7078 221.12 22.6365C222.397 24.5652 223.212 26.6249 223.573 28.823L218.398 29.9001C218.172 28.288 217.648 26.8069 216.818 25.4641C215.988 24.1212 214.835 23.0441 213.357 22.2362C211.88 21.4283 210.064 21.028 207.913 21.028C205.762 21.028 203.757 21.5229 202.032 22.5055C200.307 23.4917 198.938 24.9037 197.93 26.7414C196.922 28.5792 196.416 30.7735 196.416 33.3282V33.9323C196.416 36.4869 196.922 38.685 197.93 40.5191C198.938 42.3568 200.307 43.7688 202.032 44.755C203.757 45.7412 205.718 46.2325 207.913 46.2325C211.184 46.2325 213.685 45.3809 215.41 43.6778C217.135 41.9747 218.201 39.8677 218.601 37.3603L223.846 38.503C223.351 40.6537 222.455 42.6953 221.156 44.6204C219.857 46.5491 218.095 48.0957 215.879 49.2602C213.659 50.4247 210.981 51.007 207.847 51.007L207.844 50.9997Z" fill="white"/>
<path d="M229.556 50.0573V3H234.865V22.4292H235.808C236.256 21.443 236.94 20.515 237.857 19.638C238.774 18.7646 239.964 18.0368 241.42 17.4545C242.876 16.8723 244.724 16.5812 246.966 16.5812C249.43 16.5812 251.639 17.1088 253.59 18.1605C255.54 19.2122 257.098 20.737 258.262 22.7313C259.427 24.7255 260.009 27.2001 260.009 30.1587V50.0573H254.7V30.5626C254.7 27.2911 253.881 24.9147 252.247 23.4372C250.609 21.9598 248.404 21.2174 245.623 21.2174C242.439 21.2174 239.851 22.2473 237.857 24.3106C235.863 26.374 234.865 29.4418 234.865 33.5212V50.0573H229.556Z" fill="white"/>
<path d="M267.404 50.0573V3H272.714V50.0573H267.404Z" fill="white"/>
<path d="M283.202 12.0759C282.038 12.0759 281.062 11.6974 280.276 10.9332C279.49 10.1726 279.101 9.20824 279.101 8.04372C279.101 6.87921 279.494 5.84934 280.276 5.08512C281.059 4.32455 282.034 3.94244 283.202 3.94244C284.37 3.94244 285.331 4.32455 286.092 5.08512C286.852 5.84934 287.234 6.8319 287.234 8.04372C287.234 9.25554 286.852 10.1726 286.092 10.9332C285.327 11.6974 284.367 12.0759 283.202 12.0759ZM280.513 50.0572V17.1852H285.822V50.0572H280.513Z" fill="white"/>
<path d="M293.626 50.0574V17.1853H298.801V22.764H299.744C300.461 21.1956 301.683 19.7727 303.408 18.4953C305.133 17.218 307.677 16.5812 311.04 16.5812C313.504 16.5812 315.713 17.0979 317.664 18.1278C319.614 19.1577 321.172 20.6825 322.336 22.6985C323.501 24.7146 324.083 27.2037 324.083 30.1623V50.061H318.774V30.5663C318.774 27.2947 317.955 24.9184 316.321 23.4409C314.683 21.9634 312.478 21.221 309.697 21.221C306.513 21.221 303.925 22.2509 301.931 24.3143C299.937 26.3777 298.939 29.4454 298.939 33.5249V50.061H293.63L293.626 50.0574Z" fill="white"/>
<path d="M346.534 50.9999C343.215 50.9999 340.303 50.2939 337.792 48.8819C335.281 47.47 333.33 45.4867 331.944 42.932C330.553 40.3773 329.858 37.4187 329.858 34.0598V33.252C329.858 29.8458 330.553 26.8653 331.944 24.3107C333.334 21.756 335.259 19.7727 337.727 18.3607C340.19 16.9488 343.014 16.2428 346.199 16.2428C349.383 16.2428 352.025 16.9051 354.402 18.2261C356.778 19.5471 358.638 21.4431 359.981 23.9067C361.327 26.3704 361.997 29.2635 361.997 32.5787V34.9987H335.172C335.306 38.5396 336.449 41.309 338.6 43.2995C340.751 45.2938 343.44 46.2909 346.668 46.2909C349.492 46.2909 351.665 45.6431 353.19 44.3403C354.715 43.0412 355.879 41.4946 356.687 39.7005L361.258 41.9203C360.585 43.3105 359.653 44.7006 358.467 46.0871C357.281 47.4772 355.734 48.6418 353.827 49.5843C351.92 50.5268 349.489 50.9963 346.534 50.9963V50.9999ZM335.241 30.6318H356.618C356.44 27.5859 355.395 25.2095 353.492 23.5064C351.585 21.8033 349.154 20.9518 346.199 20.9518C343.244 20.9518 340.729 21.8033 338.804 23.5064C336.875 25.2095 335.689 27.5859 335.241 30.6318Z" fill="white"/>
<path d="M29.7077 20.7566C29.7834 18.7187 30.1366 16.6935 30.0861 14.6556C29.8969 7.32335 23.6566 0.657669 16.4198 0.0462943C9.18293 -0.56508 1.93346 4.95427 0.524772 12.1464C-0.883914 19.3386 3.7332 27.227 10.6505 29.456C13.8043 30.4707 17.2019 30.407 20.423 31.1754C27.4916 32.861 33.3619 38.8686 34.9345 46.0268C35.3719 48.0222 35.5148 50.1238 36.4357 51.9452C38.7064 56.4329 45.2495 57.4603 48.6009 53.6859C49.7573 52.3825 50.5562 50.8074 51.536 49.3681C55.5182 43.5048 62.7172 40.0404 69.7354 40.605C71.5267 40.7494 73.3391 41.1358 75.0968 40.7791C78.9234 40.0022 81.3665 35.2216 79.7812 31.6212C78.1959 28.0209 73.0405 26.6581 69.9078 29.0102C68.3519 30.1777 67.4016 31.9651 66.2578 33.5445C61.2118 40.5286 51.4771 43.6322 43.374 40.8343C35.2709 38.0364 29.4512 29.5663 29.6993 20.9264C29.6993 20.8712 29.6993 20.816 29.7035 20.7566H29.7077Z" fill="white"/>
</g>
<defs>
<clipPath id="clip0_2001_378">
<rect width="374.477" height="56" fill="white" transform="translate(0.271484)"/>
</clipPath>
</defs>
</svg>
