<svg width="375" height="56" viewBox="0 0 375 56" fill="none" xmlns="http://www.w3.org/2000/svg">
<g clip-path="url(#clip0_2001_379)">
<path d="M361.726 16.2428L365.558 3.82611H368.182L372.014 16.2428H370.471L369.514 13.1022H364.226L363.269 16.2428H361.726ZM364.601 11.7557H369.124L366.995 4.73225H366.748L364.601 11.7557Z" fill="#010103"/>
<path d="M372.989 16.2428V3.82611H374.478V16.2428H372.989Z" fill="#010103"/>
<path d="M96.4392 50.0573V3H114.457C117.281 3 119.803 3.54951 122.02 4.64852C124.24 5.74753 125.998 7.30507 127.297 9.32113C128.596 11.3372 129.247 13.7827 129.247 16.6503V17.5237C129.247 20.3476 128.585 22.7786 127.264 24.8165C125.943 26.858 124.16 28.4119 121.918 29.4891C119.676 30.5663 117.187 31.1012 114.454 31.1012H102.084V50.0573H96.4355H96.4392ZM102.087 25.9919H113.853C116.856 25.9919 119.232 25.2422 120.979 23.7393C122.726 22.24 123.599 20.122 123.599 17.3854V16.7122C123.599 13.9792 122.737 11.8612 121.012 10.3583C119.287 8.85897 116.899 8.10567 113.853 8.10567H102.087V25.9883V25.9919Z" fill="#010103"/>
<path d="M143.028 50.9999C140.743 50.9999 138.658 50.596 136.776 49.7917C134.895 48.9838 133.413 47.8193 132.34 46.2945C131.263 44.7734 130.728 42.9102 130.728 40.7158C130.728 38.5214 131.266 36.6254 132.34 35.1698C133.413 33.7141 134.895 32.6151 136.776 31.8764C138.658 31.1376 140.765 30.7665 143.094 30.7665H154.186V28.3464C154.186 26.0174 153.502 24.1797 152.138 22.8332C150.769 21.4904 148.742 20.8171 146.053 20.8171C143.363 20.8171 141.347 21.4576 139.866 22.7313C138.388 24.0086 137.38 25.7226 136.842 27.8734L131.867 26.2612C132.405 24.4235 133.257 22.7531 134.421 21.2538C135.586 19.7545 137.144 18.5427 139.094 17.622C141.045 16.7049 143.385 16.2428 146.118 16.2428C150.329 16.2428 153.604 17.3309 155.933 19.5034C158.262 21.676 159.431 24.7365 159.431 28.6812V43.5397C159.431 44.8826 160.057 45.5558 161.312 45.5558H164.336V50.061H159.696C158.219 50.061 157.029 49.6462 156.133 48.8164C155.235 47.9867 154.787 46.8768 154.787 45.4903V45.1555H153.979C153.484 46.007 152.825 46.8914 151.996 47.812C151.166 48.7327 150.034 49.4933 148.6 50.0974C147.166 50.7015 145.307 51.0035 143.021 51.0035L143.028 50.9999ZM143.632 46.4292C146.77 46.4292 149.313 45.5012 151.264 43.638C153.215 41.7784 154.19 39.1692 154.19 35.8066V35.0679H143.298C141.191 35.0679 139.455 35.5264 138.086 36.4471C136.718 37.3678 136.037 38.7434 136.037 40.5811C136.037 42.4189 136.743 43.8527 138.155 44.8826C139.567 45.9124 141.394 46.4292 143.632 46.4292Z" fill="#010103"/>
<path d="M178.191 50.0573C176.31 50.0573 174.865 49.5442 173.853 48.5107C172.845 47.4808 172.339 46.0688 172.339 44.2747V21.8214H162.455V17.1816H172.339V5.48547H177.649V17.1816H188.407V21.8214H177.649V43.4669C177.649 44.8097 178.297 45.4829 179.6 45.4829H186.929V50.0537H178.191V50.0573Z" fill="#010103"/>
<path d="M207.572 50.9997C204.388 50.9997 201.531 50.3156 199.002 48.9509C196.469 47.5862 194.474 45.6247 193.019 43.0701C191.563 40.5154 190.835 37.4913 190.835 33.9941V33.2554C190.835 29.7146 191.563 26.6795 193.019 24.1467C194.474 21.6139 196.469 19.667 199.002 18.2987C201.535 16.9304 204.391 16.2498 207.572 16.2498C210.753 16.2498 213.388 16.8321 215.604 17.9966C217.824 19.1611 219.571 20.7078 220.848 22.6365C222.126 24.5652 222.941 26.6249 223.301 28.823L218.126 29.9001C217.9 28.288 217.376 26.8069 216.547 25.4641C215.717 24.1212 214.563 23.0441 213.086 22.2362C211.608 21.4283 209.792 21.028 207.641 21.028C205.49 21.028 203.485 21.5229 201.76 22.5055C200.035 23.4917 198.667 24.9037 197.659 26.7414C196.651 28.5792 196.145 30.7735 196.145 33.3282V33.9323C196.145 36.4869 196.651 38.685 197.659 40.5191C198.667 42.3568 200.035 43.7688 201.76 44.755C203.485 45.7412 205.447 46.2325 207.641 46.2325C210.913 46.2325 213.413 45.3809 215.138 43.6778C216.863 41.9747 217.93 39.8677 218.33 37.3603L223.574 38.503C223.079 40.6537 222.184 42.6953 220.885 44.6204C219.585 46.5491 217.824 48.0957 215.608 49.2602C213.388 50.4247 210.709 51.007 207.576 51.007L207.572 50.9997Z" fill="#010103"/>
<path d="M229.284 50.0573V3H234.594V22.4292H235.537C235.984 21.443 236.668 20.515 237.585 19.638C238.503 18.7646 239.693 18.0368 241.148 17.4545C242.604 16.8723 244.453 16.5812 246.695 16.5812C249.158 16.5812 251.367 17.1088 253.318 18.1605C255.269 19.2122 256.826 20.737 257.991 22.7313C259.156 24.7255 259.738 27.2001 259.738 30.1587V50.0573H254.428V30.5626C254.428 27.2911 253.609 24.9147 251.975 23.4372C250.338 21.9598 248.132 21.2174 245.352 21.2174C242.167 21.2174 239.58 22.2473 237.585 24.3106C235.591 26.374 234.594 29.4418 234.594 33.5212V50.0573H229.284Z" fill="#010103"/>
<path d="M267.133 50.0573V3H272.443V50.0573H267.133Z" fill="#010103"/>
<path d="M282.931 12.0759C281.766 12.0759 280.791 11.6974 280.005 10.9332C279.218 10.1726 278.829 9.20824 278.829 8.04372C278.829 6.87921 279.222 5.84934 280.005 5.08512C280.787 4.32455 281.762 3.94244 282.931 3.94244C284.099 3.94244 285.06 4.32455 285.82 5.08512C286.581 5.84934 286.963 6.8319 286.963 8.04372C286.963 9.25554 286.581 10.1726 285.82 10.9332C285.056 11.6974 284.095 12.0759 282.931 12.0759ZM280.241 50.0572V17.1852H285.551V50.0572H280.241Z" fill="#010103"/>
<path d="M293.354 50.0574V17.1853H298.53V22.764H299.472C300.189 21.1956 301.412 19.7727 303.137 18.4953C304.862 17.218 307.406 16.5812 310.769 16.5812C313.232 16.5812 315.441 17.0979 317.392 18.1278C319.343 19.1577 320.9 20.6825 322.065 22.6985C323.229 24.7146 323.812 27.2037 323.812 30.1623V50.061H318.502V30.5663C318.502 27.2947 317.683 24.9184 316.049 23.4409C314.411 21.9634 312.206 21.221 309.426 21.221C306.241 21.221 303.654 22.2509 301.659 24.3143C299.665 26.3777 298.668 29.4454 298.668 33.5249V50.061H293.358L293.354 50.0574Z" fill="#010103"/>
<path d="M346.262 50.9999C342.943 50.9999 340.032 50.2939 337.521 48.8819C335.009 47.47 333.059 45.4867 331.672 42.932C330.282 40.3773 329.587 37.4187 329.587 34.0598V33.252C329.587 29.8458 330.282 26.8653 331.672 24.3107C333.062 21.756 334.988 19.7727 337.455 18.3607C339.919 16.9488 342.743 16.2428 345.927 16.2428C349.112 16.2428 351.754 16.9051 354.13 18.2261C356.507 19.5471 358.366 21.4431 359.709 23.9067C361.056 26.3704 361.726 29.2635 361.726 32.5787V34.9987H334.9C335.035 38.5396 336.178 41.309 338.328 43.2995C340.479 45.2938 343.169 46.2909 346.397 46.2909C349.221 46.2909 351.394 45.6431 352.918 44.3403C354.443 43.0412 355.608 41.4946 356.416 39.7005L360.987 41.9203C360.314 43.3105 359.382 44.7006 358.195 46.0871C357.009 47.4772 355.462 48.6418 353.555 49.5843C351.648 50.5268 349.217 50.9963 346.262 50.9963V50.9999ZM334.969 30.6318H356.347C356.168 27.5859 355.124 25.2095 353.221 23.5064C351.314 21.8033 348.882 20.9518 345.927 20.9518C342.972 20.9518 340.457 21.8033 338.532 23.5064C336.603 25.2095 335.417 27.5859 334.969 30.6318Z" fill="#010103"/>
<path d="M29.4362 20.7566C29.5119 18.7187 29.8651 16.6935 29.8147 14.6556C29.6254 7.32335 23.3852 0.657669 16.1483 0.0462943C8.91144 -0.56508 1.66197 4.95427 0.253287 12.1464C-1.1554 19.3386 3.46172 27.227 10.379 29.456C13.5328 30.4707 16.9304 30.407 20.1515 31.1754C27.2201 32.861 33.0904 38.8686 34.6631 46.0268C35.1004 48.0222 35.2433 50.1238 36.1642 51.9452C38.435 56.4329 44.978 57.4603 48.3294 53.6859C49.4858 52.3825 50.2847 50.8074 51.2645 49.3681C55.2467 43.5048 62.4457 40.0404 69.4639 40.605C71.2552 40.7494 73.0676 41.1358 74.8253 40.7791C78.6519 40.0022 81.095 35.2216 79.5097 31.6212C77.9244 28.0209 72.769 26.6581 69.6363 29.0102C68.0804 30.1777 67.1301 31.9651 65.9863 33.5445C60.9403 40.5286 51.2056 43.6322 43.1025 40.8343C34.9995 38.0364 29.1797 29.5663 29.4278 20.9264C29.4278 20.8712 29.4278 20.816 29.432 20.7566H29.4362Z" fill="#010103"/>
</g>
<defs>
<clipPath id="clip0_2001_379">
<rect width="374.477" height="56" fill="white"/>
</clipPath>
</defs>
</svg>
